# xmcd
#
# Track frame offsets: 
#        150
#        26311
#        44963
#        62416
#        81259
#        105850
#        122840
#        137687
#        156051
#        171003
#        188819
#        205070
#        223286
#
# Disc length: 3343 seconds
#
# Revision: 2
# Processed by: cddbd v1.5.2PL0 Copyright (c) Steve Scherf et al.
# Submitted via: ExactAudioCopyFreeDBPlugin 1.0
#
DISCID=b10d0d0d
DTITLE=BABYMETAL - BABYMETAL
DYEAR=2014
DGENRE=Metal
TTITLE0=BABYMETAL DEATH
TTITLE1=メギツネ
TTITLE2=ギミチョコ!!
TTITLE3=いいね!
TTITLE4=紅月-アカツキ-
TTITLE5=ド・キ・ド・キ☆モーニング
TTITLE6=おねだり大作戦
TTITLE7=4の歌
TTITLE8=ウ・キ・ウ・キ★ミッドナイト
TTITLE9=Catch me if you can
TTITLE10=悪夢の輪舞曲
TTITLE11=ヘドバンギャー!!
TTITLE12=イジメ、ダメ、ゼッタイ
EXTD=
EXTT0=
EXTT1=
EXTT2=
EXTT3=
EXTT4=
EXTT5=
EXTT6=
EXTT7=
EXTT8=
EXTT9=
EXTT10=
EXTT11=
EXTT12=
PLAYORDER=
